<svg preserveAspectRatio="none" overflow="visible" style="display: block;" width="76" height="74" viewBox="0 0 76 74" fill="none" xmlns="http://www.w3.org/2000/svg">
<g id="Group 18595">
<rect id="Rectangle 21" x="0.5" y="0.5" width="75" height="73" rx="14.5" fill="url(#paint0_linear_0_16)" stroke="url(#paint1_linear_0_16)"/>
<path id="Vector" d="M19 26.55C19 24.2824 19.9008 22.1077 21.5042 20.5042C23.1077 18.9008 25.2824 18 27.55 18H48.45C49.5728 18 50.6846 18.2212 51.7219 18.6508C52.7593 19.0805 53.7018 19.7103 54.4958 20.5042C55.2897 21.2982 55.9195 22.2407 56.3492 23.2781C56.7788 24.3154 57 25.4272 57 26.55C57 27.6728 56.7788 28.7846 56.3492 29.8219C55.9195 30.8593 55.2897 31.8018 54.4958 32.5958C53.7018 33.3897 52.7593 34.0195 51.7219 34.4492C50.6846 34.8788 49.5728 35.1 48.45 35.1H27.55C25.2824 35.1 23.1077 34.1992 21.5042 32.5958C19.9008 30.9923 19 28.8176 19 26.55ZM27.55 30.35C28.5578 30.35 29.5244 29.9496 30.237 29.237C30.9496 28.5244 31.35 27.5578 31.35 26.55C31.35 25.5422 30.9496 24.5756 30.237 23.863C29.5244 23.1504 28.5578 22.75 27.55 22.75C26.5422 22.75 25.5756 23.1504 24.863 23.863C24.1504 24.5756 23.75 25.5422 23.75 26.55C23.75 27.5578 24.1504 28.5244 24.863 29.237C25.5756 29.9496 26.5422 30.35 27.55 30.35ZM27.55 38.9C26.4272 38.9 25.3154 39.1212 24.2781 39.5508C23.2407 39.9805 22.2982 40.6103 21.5042 41.4042C20.7103 42.1982 20.0805 43.1407 19.6508 44.1781C19.2212 45.2154 19 46.3272 19 47.45C19 48.5728 19.2212 49.6846 19.6508 50.7219C20.0805 51.7593 20.7103 52.7018 21.5042 53.4958C22.2982 54.2897 23.2407 54.9195 24.2781 55.3492C25.3154 55.7788 26.4272 56 27.55 56H48.45C49.5728 56 50.6846 55.7788 51.7219 55.3492C52.7593 54.9195 53.7018 54.2897 54.4958 53.4958C55.2897 52.7018 55.9195 51.7593 56.3492 50.7219C56.7788 49.6846 57 48.5728 57 47.45C57 46.3272 56.7788 45.2154 56.3492 44.1781C55.9195 43.1407 55.2897 42.1982 54.4958 41.4042C53.7018 40.6103 52.7593 39.9805 51.7219 39.5508C50.6846 39.1212 49.5728 38.9 48.45 38.9H27.55ZM52.25 47.45C52.25 48.4578 51.8496 49.4244 51.137 50.137C50.4244 50.8496 49.4578 51.25 48.45 51.25C47.4422 51.25 46.4756 50.8496 45.763 50.137C45.0504 49.4244 44.65 48.4578 44.65 47.45C44.65 46.4422 45.0504 45.4756 45.763 44.763C46.4756 44.0504 47.4422 43.65 48.45 43.65C49.4578 43.65 50.4244 44.0504 51.137 44.763C51.8496 45.4756 52.25 46.4422 52.25 47.45Z" fill="white"/>
</g>
<defs>
<linearGradient id="paint0_linear_0_16" x1="63.7627" y1="64.5932" x2="13.0333" y2="10.5631" gradientUnits="userSpaceOnUse">
<stop stop-color="#75009C"/>
<stop offset="1" stop-color="#1E0127"/>
</linearGradient>
<linearGradient id="paint1_linear_0_16" x1="8.37288" y1="15.0508" x2="80.0139" y2="82.1739" gradientUnits="userSpaceOnUse">
<stop stop-color="white"/>
<stop offset="1" stop-opacity="0"/>
</linearGradient>
</defs>
</svg>
